<mxfile host="app.diagrams.net" modified="2023-01-27T03:59:57.758Z" agent="5.0 (Windows NT 10.0; Win64; x64) AppleWebKit/537.36 (KHTML, like Gecko) Chrome/109.0.0.0 Safari/537.36" etag="03vDaeBcdk9-HWPcY-Nx" version="20.8.13" type="github">
  <diagram name="Page-1" id="75ijMoARy1V0T_I6zWVH">
    <mxGraphModel dx="2035" dy="1073" grid="1" gridSize="10" guides="1" tooltips="1" connect="1" arrows="1" fold="1" page="1" pageScale="1" pageWidth="1200" pageHeight="2200" math="0" shadow="0">
      <root>
        <mxCell id="0" />
        <mxCell id="1" parent="0" />
        <mxCell id="lsnb-UCqG33tclxANdVv-4" value="" style="strokeWidth=1;shadow=0;dashed=0;align=center;html=1;shape=mxgraph.mockup.containers.browserWindow;rSize=0;strokeColor=#666666;strokeColor2=#008cff;strokeColor3=#c4c4c4;mainText=,;recursiveResize=0;" parent="1" vertex="1">
          <mxGeometry x="53.75" y="240" width="1090" height="1890" as="geometry" />
        </mxCell>
        <mxCell id="lsnb-UCqG33tclxANdVv-5" value="Spotify Clone" style="strokeWidth=1;shadow=0;dashed=0;align=center;html=1;shape=mxgraph.mockup.containers.anchor;fontSize=17;fontColor=#666666;align=left;" parent="lsnb-UCqG33tclxANdVv-4" vertex="1">
          <mxGeometry x="60" y="12" width="110" height="26" as="geometry" />
        </mxCell>
        <mxCell id="lsnb-UCqG33tclxANdVv-6" value="https://localhost:4000/search" style="strokeWidth=1;shadow=0;dashed=0;align=center;html=1;shape=mxgraph.mockup.containers.anchor;rSize=0;fontSize=17;fontColor=#666666;align=left;" parent="lsnb-UCqG33tclxANdVv-4" vertex="1">
          <mxGeometry x="130" y="60" width="250" height="26" as="geometry" />
        </mxCell>
        <mxCell id="lsnb-UCqG33tclxANdVv-7" value="" style="rounded=0;whiteSpace=wrap;html=1;rotation=90;" parent="lsnb-UCqG33tclxANdVv-4" vertex="1">
          <mxGeometry x="-798.43" y="908.44" width="1776.87" height="180" as="geometry" />
        </mxCell>
        <mxCell id="lsnb-UCqG33tclxANdVv-8" value="&lt;font style=&quot;font-size: 21px;&quot;&gt;LINKS&lt;/font&gt;" style="text;html=1;strokeColor=none;fillColor=none;align=center;verticalAlign=middle;whiteSpace=wrap;rounded=0;" parent="lsnb-UCqG33tclxANdVv-4" vertex="1">
          <mxGeometry x="20" y="130" width="120" height="110" as="geometry" />
        </mxCell>
        <mxCell id="lsnb-UCqG33tclxANdVv-9" value="&lt;font style=&quot;font-size: 21px;&quot;&gt;Local&lt;br&gt;Playlists&lt;br&gt;&lt;/font&gt;" style="text;html=1;strokeColor=none;fillColor=none;align=center;verticalAlign=middle;whiteSpace=wrap;rounded=0;" parent="lsnb-UCqG33tclxANdVv-4" vertex="1">
          <mxGeometry x="20" y="270" width="120" height="110" as="geometry" />
        </mxCell>
        <mxCell id="lsnb-UCqG33tclxANdVv-10" value="" style="rounded=1;whiteSpace=wrap;html=1;fontSize=21;" parent="lsnb-UCqG33tclxANdVv-4" vertex="1">
          <mxGeometry x="200" y="130" width="580" height="60" as="geometry" />
        </mxCell>
        <mxCell id="lsnb-UCqG33tclxANdVv-11" value="Main Search Bar" style="text;html=1;strokeColor=none;fillColor=none;align=center;verticalAlign=middle;whiteSpace=wrap;rounded=0;fontSize=21;" parent="lsnb-UCqG33tclxANdVv-4" vertex="1">
          <mxGeometry x="210" y="145" width="530" height="30" as="geometry" />
        </mxCell>
        <mxCell id="lsnb-UCqG33tclxANdVv-12" value="" style="rounded=0;whiteSpace=wrap;html=1;fontSize=21;" parent="lsnb-UCqG33tclxANdVv-4" vertex="1">
          <mxGeometry x="950" y="130" width="120" height="90" as="geometry" />
        </mxCell>
        <mxCell id="lsnb-UCqG33tclxANdVv-13" value="Logged in user menu" style="text;html=1;strokeColor=none;fillColor=none;align=center;verticalAlign=middle;whiteSpace=wrap;rounded=0;fontSize=21;" parent="lsnb-UCqG33tclxANdVv-4" vertex="1">
          <mxGeometry x="980" y="160" width="60" height="30" as="geometry" />
        </mxCell>
        <mxCell id="lsnb-UCqG33tclxANdVv-92" value="" style="rounded=0;whiteSpace=wrap;html=1;" parent="lsnb-UCqG33tclxANdVv-4" vertex="1">
          <mxGeometry x="220" y="283.75" width="110" height="136.25" as="geometry" />
        </mxCell>
        <mxCell id="lsnb-UCqG33tclxANdVv-93" value="Playlists" style="text;html=1;strokeColor=none;fillColor=none;align=center;verticalAlign=middle;whiteSpace=wrap;rounded=0;fontSize=21;" parent="lsnb-UCqG33tclxANdVv-4" vertex="1">
          <mxGeometry x="40" y="220" width="530" height="30" as="geometry" />
        </mxCell>
        <mxCell id="lsnb-UCqG33tclxANdVv-94" value="" style="rounded=0;whiteSpace=wrap;html=1;" parent="lsnb-UCqG33tclxANdVv-4" vertex="1">
          <mxGeometry x="360" y="283.75" width="110" height="136.25" as="geometry" />
        </mxCell>
        <mxCell id="lsnb-UCqG33tclxANdVv-95" value="" style="rounded=0;whiteSpace=wrap;html=1;" parent="lsnb-UCqG33tclxANdVv-4" vertex="1">
          <mxGeometry x="500" y="283.75" width="110" height="136.25" as="geometry" />
        </mxCell>
        <mxCell id="lsnb-UCqG33tclxANdVv-96" value="" style="rounded=0;whiteSpace=wrap;html=1;" parent="lsnb-UCqG33tclxANdVv-4" vertex="1">
          <mxGeometry x="640" y="283.75" width="110" height="136.25" as="geometry" />
        </mxCell>
        <mxCell id="lsnb-UCqG33tclxANdVv-97" value="" style="rounded=0;whiteSpace=wrap;html=1;" parent="lsnb-UCqG33tclxANdVv-4" vertex="1">
          <mxGeometry x="780" y="283.75" width="110" height="136.25" as="geometry" />
        </mxCell>
        <mxCell id="lsnb-UCqG33tclxANdVv-98" value="" style="rounded=0;whiteSpace=wrap;html=1;" parent="lsnb-UCqG33tclxANdVv-4" vertex="1">
          <mxGeometry x="780" y="283.75" width="110" height="136.25" as="geometry" />
        </mxCell>
        <mxCell id="lsnb-UCqG33tclxANdVv-99" value="" style="rounded=0;whiteSpace=wrap;html=1;" parent="lsnb-UCqG33tclxANdVv-4" vertex="1">
          <mxGeometry x="640" y="283.75" width="110" height="136.25" as="geometry" />
        </mxCell>
        <mxCell id="lsnb-UCqG33tclxANdVv-100" value="" style="rounded=0;whiteSpace=wrap;html=1;" parent="lsnb-UCqG33tclxANdVv-4" vertex="1">
          <mxGeometry x="780" y="283.75" width="110" height="136.25" as="geometry" />
        </mxCell>
        <mxCell id="lsnb-UCqG33tclxANdVv-101" value="" style="rounded=0;whiteSpace=wrap;html=1;" parent="lsnb-UCqG33tclxANdVv-4" vertex="1">
          <mxGeometry x="640" y="283.75" width="110" height="136.25" as="geometry" />
        </mxCell>
        <mxCell id="lsnb-UCqG33tclxANdVv-102" value="" style="rounded=0;whiteSpace=wrap;html=1;" parent="lsnb-UCqG33tclxANdVv-4" vertex="1">
          <mxGeometry x="780" y="283.75" width="110" height="136.25" as="geometry" />
        </mxCell>
        <mxCell id="lsnb-UCqG33tclxANdVv-103" value="" style="rounded=0;whiteSpace=wrap;html=1;" parent="lsnb-UCqG33tclxANdVv-4" vertex="1">
          <mxGeometry x="640" y="283.75" width="110" height="136.25" as="geometry" />
        </mxCell>
        <mxCell id="lsnb-UCqG33tclxANdVv-104" value="" style="rounded=0;whiteSpace=wrap;html=1;" parent="lsnb-UCqG33tclxANdVv-4" vertex="1">
          <mxGeometry x="220" y="450" width="110" height="136.25" as="geometry" />
        </mxCell>
        <mxCell id="lsnb-UCqG33tclxANdVv-105" value="" style="rounded=0;whiteSpace=wrap;html=1;" parent="lsnb-UCqG33tclxANdVv-4" vertex="1">
          <mxGeometry x="360" y="450" width="110" height="136.25" as="geometry" />
        </mxCell>
        <mxCell id="lsnb-UCqG33tclxANdVv-106" value="" style="rounded=0;whiteSpace=wrap;html=1;" parent="lsnb-UCqG33tclxANdVv-4" vertex="1">
          <mxGeometry x="500" y="450" width="110" height="136.25" as="geometry" />
        </mxCell>
        <mxCell id="lsnb-UCqG33tclxANdVv-107" value="" style="rounded=0;whiteSpace=wrap;html=1;" parent="lsnb-UCqG33tclxANdVv-4" vertex="1">
          <mxGeometry x="780" y="450" width="110" height="136.25" as="geometry" />
        </mxCell>
        <mxCell id="lsnb-UCqG33tclxANdVv-108" value="" style="rounded=0;whiteSpace=wrap;html=1;" parent="lsnb-UCqG33tclxANdVv-4" vertex="1">
          <mxGeometry x="640" y="450" width="110" height="136.25" as="geometry" />
        </mxCell>
        <mxCell id="lsnb-UCqG33tclxANdVv-111" value="" style="rounded=0;whiteSpace=wrap;html=1;" parent="lsnb-UCqG33tclxANdVv-4" vertex="1">
          <mxGeometry x="220" y="703.75" width="110" height="136.25" as="geometry" />
        </mxCell>
        <mxCell id="lsnb-UCqG33tclxANdVv-112" value="Songs" style="text;html=1;strokeColor=none;fillColor=none;align=center;verticalAlign=middle;whiteSpace=wrap;rounded=0;fontSize=21;" parent="lsnb-UCqG33tclxANdVv-4" vertex="1">
          <mxGeometry x="40" y="640" width="530" height="30" as="geometry" />
        </mxCell>
        <mxCell id="lsnb-UCqG33tclxANdVv-113" value="" style="rounded=0;whiteSpace=wrap;html=1;" parent="lsnb-UCqG33tclxANdVv-4" vertex="1">
          <mxGeometry x="360" y="703.75" width="110" height="136.25" as="geometry" />
        </mxCell>
        <mxCell id="lsnb-UCqG33tclxANdVv-114" value="" style="rounded=0;whiteSpace=wrap;html=1;" parent="lsnb-UCqG33tclxANdVv-4" vertex="1">
          <mxGeometry x="500" y="703.75" width="110" height="136.25" as="geometry" />
        </mxCell>
        <mxCell id="lsnb-UCqG33tclxANdVv-115" value="" style="rounded=0;whiteSpace=wrap;html=1;" parent="lsnb-UCqG33tclxANdVv-4" vertex="1">
          <mxGeometry x="780" y="703.75" width="110" height="136.25" as="geometry" />
        </mxCell>
        <mxCell id="lsnb-UCqG33tclxANdVv-116" value="" style="rounded=0;whiteSpace=wrap;html=1;" parent="lsnb-UCqG33tclxANdVv-4" vertex="1">
          <mxGeometry x="640" y="703.75" width="110" height="136.25" as="geometry" />
        </mxCell>
        <mxCell id="lsnb-UCqG33tclxANdVv-117" value="" style="rounded=0;whiteSpace=wrap;html=1;" parent="lsnb-UCqG33tclxANdVv-4" vertex="1">
          <mxGeometry x="220" y="870" width="110" height="136.25" as="geometry" />
        </mxCell>
        <mxCell id="lsnb-UCqG33tclxANdVv-118" value="" style="rounded=0;whiteSpace=wrap;html=1;" parent="lsnb-UCqG33tclxANdVv-4" vertex="1">
          <mxGeometry x="360" y="870" width="110" height="136.25" as="geometry" />
        </mxCell>
        <mxCell id="lsnb-UCqG33tclxANdVv-119" value="" style="rounded=0;whiteSpace=wrap;html=1;" parent="lsnb-UCqG33tclxANdVv-4" vertex="1">
          <mxGeometry x="500" y="870" width="110" height="136.25" as="geometry" />
        </mxCell>
        <mxCell id="lsnb-UCqG33tclxANdVv-120" value="" style="rounded=0;whiteSpace=wrap;html=1;" parent="lsnb-UCqG33tclxANdVv-4" vertex="1">
          <mxGeometry x="780" y="870" width="110" height="136.25" as="geometry" />
        </mxCell>
        <mxCell id="lsnb-UCqG33tclxANdVv-121" value="" style="rounded=0;whiteSpace=wrap;html=1;" parent="lsnb-UCqG33tclxANdVv-4" vertex="1">
          <mxGeometry x="640" y="870" width="110" height="136.25" as="geometry" />
        </mxCell>
        <mxCell id="lsnb-UCqG33tclxANdVv-122" value="" style="rounded=0;whiteSpace=wrap;html=1;" parent="lsnb-UCqG33tclxANdVv-4" vertex="1">
          <mxGeometry x="220" y="1113.75" width="110" height="136.25" as="geometry" />
        </mxCell>
        <mxCell id="lsnb-UCqG33tclxANdVv-123" value="Albums" style="text;html=1;strokeColor=none;fillColor=none;align=center;verticalAlign=middle;whiteSpace=wrap;rounded=0;fontSize=21;" parent="lsnb-UCqG33tclxANdVv-4" vertex="1">
          <mxGeometry x="40" y="1050" width="530" height="30" as="geometry" />
        </mxCell>
        <mxCell id="lsnb-UCqG33tclxANdVv-124" value="" style="rounded=0;whiteSpace=wrap;html=1;" parent="lsnb-UCqG33tclxANdVv-4" vertex="1">
          <mxGeometry x="360" y="1113.75" width="110" height="136.25" as="geometry" />
        </mxCell>
        <mxCell id="lsnb-UCqG33tclxANdVv-125" value="" style="rounded=0;whiteSpace=wrap;html=1;" parent="lsnb-UCqG33tclxANdVv-4" vertex="1">
          <mxGeometry x="500" y="1113.75" width="110" height="136.25" as="geometry" />
        </mxCell>
        <mxCell id="lsnb-UCqG33tclxANdVv-126" value="" style="rounded=0;whiteSpace=wrap;html=1;" parent="lsnb-UCqG33tclxANdVv-4" vertex="1">
          <mxGeometry x="780" y="1113.75" width="110" height="136.25" as="geometry" />
        </mxCell>
        <mxCell id="lsnb-UCqG33tclxANdVv-127" value="" style="rounded=0;whiteSpace=wrap;html=1;" parent="lsnb-UCqG33tclxANdVv-4" vertex="1">
          <mxGeometry x="640" y="1113.75" width="110" height="136.25" as="geometry" />
        </mxCell>
        <mxCell id="lsnb-UCqG33tclxANdVv-128" value="" style="rounded=0;whiteSpace=wrap;html=1;" parent="lsnb-UCqG33tclxANdVv-4" vertex="1">
          <mxGeometry x="220" y="1280" width="110" height="136.25" as="geometry" />
        </mxCell>
        <mxCell id="lsnb-UCqG33tclxANdVv-129" value="" style="rounded=0;whiteSpace=wrap;html=1;" parent="lsnb-UCqG33tclxANdVv-4" vertex="1">
          <mxGeometry x="360" y="1280" width="110" height="136.25" as="geometry" />
        </mxCell>
        <mxCell id="lsnb-UCqG33tclxANdVv-130" value="" style="rounded=0;whiteSpace=wrap;html=1;" parent="lsnb-UCqG33tclxANdVv-4" vertex="1">
          <mxGeometry x="500" y="1280" width="110" height="136.25" as="geometry" />
        </mxCell>
        <mxCell id="lsnb-UCqG33tclxANdVv-131" value="" style="rounded=0;whiteSpace=wrap;html=1;" parent="lsnb-UCqG33tclxANdVv-4" vertex="1">
          <mxGeometry x="780" y="1280" width="110" height="136.25" as="geometry" />
        </mxCell>
        <mxCell id="lsnb-UCqG33tclxANdVv-132" value="" style="rounded=0;whiteSpace=wrap;html=1;" parent="lsnb-UCqG33tclxANdVv-4" vertex="1">
          <mxGeometry x="640" y="1280" width="110" height="136.25" as="geometry" />
        </mxCell>
        <mxCell id="lsnb-UCqG33tclxANdVv-133" value="" style="rounded=0;whiteSpace=wrap;html=1;" parent="lsnb-UCqG33tclxANdVv-4" vertex="1">
          <mxGeometry x="220" y="1523.75" width="110" height="136.25" as="geometry" />
        </mxCell>
        <mxCell id="lsnb-UCqG33tclxANdVv-134" value="Artists" style="text;html=1;strokeColor=none;fillColor=none;align=center;verticalAlign=middle;whiteSpace=wrap;rounded=0;fontSize=21;" parent="lsnb-UCqG33tclxANdVv-4" vertex="1">
          <mxGeometry x="40" y="1460" width="530" height="30" as="geometry" />
        </mxCell>
        <mxCell id="lsnb-UCqG33tclxANdVv-135" value="" style="rounded=0;whiteSpace=wrap;html=1;" parent="lsnb-UCqG33tclxANdVv-4" vertex="1">
          <mxGeometry x="360" y="1523.75" width="110" height="136.25" as="geometry" />
        </mxCell>
        <mxCell id="lsnb-UCqG33tclxANdVv-136" value="" style="rounded=0;whiteSpace=wrap;html=1;" parent="lsnb-UCqG33tclxANdVv-4" vertex="1">
          <mxGeometry x="500" y="1523.75" width="110" height="136.25" as="geometry" />
        </mxCell>
        <mxCell id="lsnb-UCqG33tclxANdVv-137" value="" style="rounded=0;whiteSpace=wrap;html=1;" parent="lsnb-UCqG33tclxANdVv-4" vertex="1">
          <mxGeometry x="780" y="1523.75" width="110" height="136.25" as="geometry" />
        </mxCell>
        <mxCell id="lsnb-UCqG33tclxANdVv-138" value="" style="rounded=0;whiteSpace=wrap;html=1;" parent="lsnb-UCqG33tclxANdVv-4" vertex="1">
          <mxGeometry x="640" y="1523.75" width="110" height="136.25" as="geometry" />
        </mxCell>
        <mxCell id="lsnb-UCqG33tclxANdVv-139" value="" style="rounded=0;whiteSpace=wrap;html=1;" parent="lsnb-UCqG33tclxANdVv-4" vertex="1">
          <mxGeometry x="220" y="1690" width="110" height="136.25" as="geometry" />
        </mxCell>
        <mxCell id="lsnb-UCqG33tclxANdVv-140" value="" style="rounded=0;whiteSpace=wrap;html=1;" parent="lsnb-UCqG33tclxANdVv-4" vertex="1">
          <mxGeometry x="360" y="1690" width="110" height="136.25" as="geometry" />
        </mxCell>
        <mxCell id="lsnb-UCqG33tclxANdVv-141" value="" style="rounded=0;whiteSpace=wrap;html=1;" parent="lsnb-UCqG33tclxANdVv-4" vertex="1">
          <mxGeometry x="500" y="1690" width="110" height="136.25" as="geometry" />
        </mxCell>
        <mxCell id="lsnb-UCqG33tclxANdVv-142" value="" style="rounded=0;whiteSpace=wrap;html=1;" parent="lsnb-UCqG33tclxANdVv-4" vertex="1">
          <mxGeometry x="780" y="1690" width="110" height="136.25" as="geometry" />
        </mxCell>
        <mxCell id="lsnb-UCqG33tclxANdVv-143" value="" style="rounded=0;whiteSpace=wrap;html=1;" parent="lsnb-UCqG33tclxANdVv-4" vertex="1">
          <mxGeometry x="640" y="1690" width="110" height="136.25" as="geometry" />
        </mxCell>
        <mxCell id="lsnb-UCqG33tclxANdVv-144" value="Add to playlist" style="strokeWidth=1;shadow=0;dashed=0;align=center;html=1;shape=mxgraph.mockup.buttons.button;strokeColor=#666666;fontColor=#ffffff;mainText=;buttonStyle=round;fontSize=17;fontStyle=1;fillColor=#008cff;whiteSpace=wrap;" parent="lsnb-UCqG33tclxANdVv-4" vertex="1">
          <mxGeometry x="225" y="780" width="100" height="40" as="geometry" />
        </mxCell>
        <mxCell id="lsnb-UCqG33tclxANdVv-145" value="Add to playlist" style="strokeWidth=1;shadow=0;dashed=0;align=center;html=1;shape=mxgraph.mockup.buttons.button;strokeColor=#666666;fontColor=#ffffff;mainText=;buttonStyle=round;fontSize=17;fontStyle=1;fillColor=#008cff;whiteSpace=wrap;" parent="lsnb-UCqG33tclxANdVv-4" vertex="1">
          <mxGeometry x="365" y="780" width="100" height="40" as="geometry" />
        </mxCell>
        <mxCell id="lsnb-UCqG33tclxANdVv-146" value="Add to playlist" style="strokeWidth=1;shadow=0;dashed=0;align=center;html=1;shape=mxgraph.mockup.buttons.button;strokeColor=#666666;fontColor=#ffffff;mainText=;buttonStyle=round;fontSize=17;fontStyle=1;fillColor=#008cff;whiteSpace=wrap;" parent="lsnb-UCqG33tclxANdVv-4" vertex="1">
          <mxGeometry x="225" y="950" width="100" height="40" as="geometry" />
        </mxCell>
        <mxCell id="lsnb-UCqG33tclxANdVv-147" value="Add to playlist" style="strokeWidth=1;shadow=0;dashed=0;align=center;html=1;shape=mxgraph.mockup.buttons.button;strokeColor=#666666;fontColor=#ffffff;mainText=;buttonStyle=round;fontSize=17;fontStyle=1;fillColor=#008cff;whiteSpace=wrap;" parent="lsnb-UCqG33tclxANdVv-4" vertex="1">
          <mxGeometry x="365" y="950" width="100" height="40" as="geometry" />
        </mxCell>
        <mxCell id="lsnb-UCqG33tclxANdVv-148" value="Add to playlist" style="strokeWidth=1;shadow=0;dashed=0;align=center;html=1;shape=mxgraph.mockup.buttons.button;strokeColor=#666666;fontColor=#ffffff;mainText=;buttonStyle=round;fontSize=17;fontStyle=1;fillColor=#008cff;whiteSpace=wrap;" parent="lsnb-UCqG33tclxANdVv-4" vertex="1">
          <mxGeometry x="505" y="950" width="100" height="40" as="geometry" />
        </mxCell>
        <mxCell id="lsnb-UCqG33tclxANdVv-149" value="Add to playlist" style="strokeWidth=1;shadow=0;dashed=0;align=center;html=1;shape=mxgraph.mockup.buttons.button;strokeColor=#666666;fontColor=#ffffff;mainText=;buttonStyle=round;fontSize=17;fontStyle=1;fillColor=#008cff;whiteSpace=wrap;" parent="lsnb-UCqG33tclxANdVv-4" vertex="1">
          <mxGeometry x="505" y="780" width="100" height="40" as="geometry" />
        </mxCell>
        <mxCell id="lsnb-UCqG33tclxANdVv-150" value="Add to playlist" style="strokeWidth=1;shadow=0;dashed=0;align=center;html=1;shape=mxgraph.mockup.buttons.button;strokeColor=#666666;fontColor=#ffffff;mainText=;buttonStyle=round;fontSize=17;fontStyle=1;fillColor=#008cff;whiteSpace=wrap;" parent="lsnb-UCqG33tclxANdVv-4" vertex="1">
          <mxGeometry x="645" y="780" width="100" height="40" as="geometry" />
        </mxCell>
        <mxCell id="lsnb-UCqG33tclxANdVv-151" value="Add to playlist" style="strokeWidth=1;shadow=0;dashed=0;align=center;html=1;shape=mxgraph.mockup.buttons.button;strokeColor=#666666;fontColor=#ffffff;mainText=;buttonStyle=round;fontSize=17;fontStyle=1;fillColor=#008cff;whiteSpace=wrap;" parent="lsnb-UCqG33tclxANdVv-4" vertex="1">
          <mxGeometry x="645" y="950" width="100" height="40" as="geometry" />
        </mxCell>
        <mxCell id="lsnb-UCqG33tclxANdVv-152" value="Add to playlist" style="strokeWidth=1;shadow=0;dashed=0;align=center;html=1;shape=mxgraph.mockup.buttons.button;strokeColor=#666666;fontColor=#ffffff;mainText=;buttonStyle=round;fontSize=17;fontStyle=1;fillColor=#008cff;whiteSpace=wrap;" parent="lsnb-UCqG33tclxANdVv-4" vertex="1">
          <mxGeometry x="785" y="950" width="100" height="40" as="geometry" />
        </mxCell>
        <mxCell id="lsnb-UCqG33tclxANdVv-153" value="Add to playlist" style="strokeWidth=1;shadow=0;dashed=0;align=center;html=1;shape=mxgraph.mockup.buttons.button;strokeColor=#666666;fontColor=#ffffff;mainText=;buttonStyle=round;fontSize=17;fontStyle=1;fillColor=#008cff;whiteSpace=wrap;" parent="lsnb-UCqG33tclxANdVv-4" vertex="1">
          <mxGeometry x="785" y="780" width="100" height="40" as="geometry" />
        </mxCell>
        <mxCell id="lsnb-UCqG33tclxANdVv-154" value="&lt;font style=&quot;font-size: 21px;&quot;&gt;Search bar returns 10 results from spotify&#39;s playlists, songs, artists and albums. The song cards have buttons to play the songs and to add the song to the selected playlist.&lt;/font&gt;" style="text;html=1;strokeColor=none;fillColor=none;align=center;verticalAlign=middle;whiteSpace=wrap;rounded=0;" parent="1" vertex="1">
          <mxGeometry x="110" y="90" width="940" height="90" as="geometry" />
        </mxCell>
      </root>
    </mxGraphModel>
  </diagram>
</mxfile>
